<svg width="114" height="38" viewBox="0 0 114 38" fill="none" xmlns="http://www.w3.org/2000/svg">
<path d="M13.2327 8.23521C13.966 8.23521 14.626 8.38188 15.2127 8.67521C15.7993 8.96854 16.0927 9.40854 16.0927 9.99521C16.0927 10.5085 15.946 10.9302 15.6527 11.2602C15.3593 11.5535 15.011 11.7002 14.6077 11.7002C14.4243 11.7002 14.0577 11.6085 13.5077 11.4252C12.9943 11.2419 12.4993 11.1502 12.0227 11.1502C10.666 11.1502 9.30931 11.6819 7.95265 12.7452C6.63265 13.7719 5.53265 15.1102 4.65265 16.7602C3.80931 18.4102 3.38765 20.0785 3.38765 21.7652V35.3502C3.38765 35.8269 3.22265 36.2302 2.89265 36.5602C2.59931 36.8535 2.21431 37.0002 1.73765 37.0002C1.26098 37.0002 0.857646 36.8535 0.527646 36.5602C0.234313 36.2302 0.0876465 35.8269 0.0876465 35.3502V10.7102C0.0876465 10.2335 0.234313 9.84855 0.527646 9.55521C0.857646 9.22521 1.26098 9.06021 1.73765 9.06021C2.21431 9.06021 2.59931 9.22521 2.89265 9.55521C3.22265 9.84855 3.38765 10.2335 3.38765 10.7102V15.5502C4.23098 13.4602 5.49598 11.7369 7.18265 10.3802C8.90598 8.98689 10.9227 8.27188 13.2327 8.23521ZM24.4398 35.3502C24.4398 35.8269 24.2748 36.2302 23.9448 36.5602C23.6515 36.8535 23.2665 37.0002 22.7898 37.0002C22.3131 37.0002 21.9098 36.8535 21.5798 36.5602C21.2865 36.2302 21.1398 35.8269 21.1398 35.3502V10.0502C21.1398 9.57354 21.2865 9.18855 21.5798 8.89522C21.9098 8.56522 22.3131 8.40021 22.7898 8.40021C23.2665 8.40021 23.6515 8.56522 23.9448 8.89522C24.2748 9.18855 24.4398 9.57354 24.4398 10.0502V35.3502ZM22.7898 4.71522C22.0565 4.71522 21.4881 4.55021 21.0848 4.22021C20.6815 3.85354 20.4798 3.34022 20.4798 2.68022V2.13022C20.4798 1.47022 20.6815 0.975214 21.0848 0.645214C21.5248 0.278548 22.1115 0.0952148 22.8448 0.0952148C24.3115 0.0952148 25.0448 0.773548 25.0448 2.13022V2.68022C25.0448 3.34022 24.8431 3.85354 24.4398 4.22021C24.0731 4.55021 23.5231 4.71522 22.7898 4.71522ZM45.1675 8.23521C46.8908 8.23521 48.4858 8.43688 49.9525 8.84021C51.4558 9.20687 52.6475 9.72021 53.5275 10.3802C54.4441 11.0402 54.9025 11.7552 54.9025 12.5252C54.9025 12.9285 54.7558 13.2952 54.4625 13.6252C54.2058 13.9552 53.8758 14.1202 53.4725 14.1202C53.1058 14.1202 52.7941 14.0469 52.5375 13.9002C52.3175 13.7535 52.0608 13.5335 51.7675 13.2402C51.2908 12.7635 50.8325 12.4152 50.3925 12.1952C49.8425 11.9385 49.1091 11.7369 48.1925 11.5902C47.3125 11.4069 46.3591 11.3152 45.3325 11.3152C43.3158 11.3152 41.4641 11.8285 39.7775 12.8552C38.1275 13.8819 36.8258 15.2752 35.8725 17.0352C34.9191 18.7952 34.4425 20.7385 34.4425 22.8652C34.4425 25.0652 34.9008 27.0452 35.8175 28.8052C36.7341 30.5652 37.9991 31.9585 39.6125 32.9852C41.2625 33.9752 43.1325 34.4702 45.2225 34.4702C46.5425 34.4702 47.5875 34.3602 48.3575 34.1402C49.1641 33.9202 49.9525 33.6085 50.7225 33.2052C50.9791 33.0585 51.4191 32.7285 52.0425 32.2152C52.3358 31.9585 52.5925 31.7752 52.8125 31.6652C53.0325 31.5185 53.2708 31.4452 53.5275 31.4452C53.9675 31.4452 54.3158 31.5919 54.5725 31.8852C54.8291 32.1419 54.9575 32.4902 54.9575 32.9302C54.9575 33.5535 54.5175 34.2319 53.6375 34.9652C52.7575 35.6619 51.5475 36.2669 50.0075 36.7802C48.4675 37.2935 46.7625 37.5502 44.8925 37.5502C42.2158 37.5502 39.8325 36.9269 37.7425 35.6802C35.6525 34.3969 34.0208 32.6369 32.8475 30.4002C31.7108 28.1635 31.1425 25.6519 31.1425 22.8652C31.1425 20.1885 31.7291 17.7502 32.9025 15.5502C34.0758 13.3135 35.7258 11.5352 37.8525 10.2152C39.9791 8.89522 42.4175 8.23521 45.1675 8.23521ZM73.4194 8.23521C75.1428 8.23521 76.7378 8.43688 78.2044 8.84021C79.7078 9.20687 80.8994 9.72021 81.7794 10.3802C82.6961 11.0402 83.1544 11.7552 83.1544 12.5252C83.1544 12.9285 83.0078 13.2952 82.7144 13.6252C82.4578 13.9552 82.1278 14.1202 81.7244 14.1202C81.3578 14.1202 81.0461 14.0469 80.7894 13.9002C80.5694 13.7535 80.3128 13.5335 80.0194 13.2402C79.5428 12.7635 79.0844 12.4152 78.6444 12.1952C78.0944 11.9385 77.3611 11.7369 76.4444 11.5902C75.5644 11.4069 74.6111 11.3152 73.5844 11.3152C71.5678 11.3152 69.7161 11.8285 68.0294 12.8552C66.3794 13.8819 65.0778 15.2752 64.1244 17.0352C63.1711 18.7952 62.6944 20.7385 62.6944 22.8652C62.6944 25.0652 63.1528 27.0452 64.0694 28.8052C64.9861 30.5652 66.2511 31.9585 67.8644 32.9852C69.5144 33.9752 71.3844 34.4702 73.4744 34.4702C74.7944 34.4702 75.8394 34.3602 76.6094 34.1402C77.4161 33.9202 78.2044 33.6085 78.9744 33.2052C79.2311 33.0585 79.6711 32.7285 80.2944 32.2152C80.5878 31.9585 80.8444 31.7752 81.0644 31.6652C81.2844 31.5185 81.5228 31.4452 81.7794 31.4452C82.2194 31.4452 82.5678 31.5919 82.8244 31.8852C83.0811 32.1419 83.2094 32.4902 83.2094 32.9302C83.2094 33.5535 82.7694 34.2319 81.8894 34.9652C81.0094 35.6619 79.7994 36.2669 78.2594 36.7802C76.7194 37.2935 75.0144 37.5502 73.1444 37.5502C70.4678 37.5502 68.0844 36.9269 65.9944 35.6802C63.9044 34.3969 62.2728 32.6369 61.0994 30.4002C59.9628 28.1635 59.3944 25.6519 59.3944 22.8652C59.3944 20.1885 59.9811 17.7502 61.1544 15.5502C62.3278 13.3135 63.9778 11.5352 66.1044 10.2152C68.2311 8.89522 70.6694 8.23521 73.4194 8.23521ZM112.341 8.89522C112.818 8.89522 113.203 9.06021 113.496 9.39021C113.826 9.72021 113.991 10.1235 113.991 10.6002V35.3502C113.991 35.8269 113.826 36.2302 113.496 36.5602C113.203 36.8535 112.818 37.0002 112.341 37.0002C111.865 37.0002 111.461 36.8535 111.131 36.5602C110.838 36.2302 110.691 35.8269 110.691 35.3502V31.6652C109.775 33.3152 108.4 34.7085 106.566 35.8452C104.733 36.9819 102.735 37.5502 100.571 37.5502C98.1147 37.5502 95.8964 36.9085 93.9164 35.6252C91.9731 34.3419 90.4331 32.5819 89.2964 30.3452C88.1964 28.1085 87.6464 25.5969 87.6464 22.8102C87.6464 20.0235 88.2147 17.5302 89.3514 15.3302C90.4881 13.0935 92.0281 11.3519 93.9714 10.1052C95.9514 8.85854 98.1331 8.23521 100.516 8.23521C102.716 8.23521 104.733 8.76688 106.566 9.83021C108.4 10.8935 109.775 12.2869 110.691 14.0102V10.6002C110.691 10.1235 110.838 9.72021 111.131 9.39021C111.461 9.06021 111.865 8.89522 112.341 8.89522ZM100.901 34.4702C102.808 34.4702 104.513 33.9752 106.016 32.9852C107.556 31.9585 108.748 30.5652 109.591 28.8052C110.471 27.0085 110.911 25.0102 110.911 22.8102C110.911 20.6835 110.471 18.7402 109.591 16.9802C108.748 15.2202 107.556 13.8452 106.016 12.8552C104.513 11.8285 102.808 11.3152 100.901 11.3152C98.9947 11.3152 97.2714 11.8102 95.7314 12.8002C94.2281 13.7902 93.0364 15.1652 92.1564 16.9252C91.3131 18.6485 90.8914 20.6102 90.8914 22.8102C90.8914 25.0102 91.3131 27.0085 92.1564 28.8052C92.9997 30.5652 94.1731 31.9585 95.6764 32.9852C97.2164 33.9752 98.9581 34.4702 100.901 34.4702Z" fill="black"/>
</svg>
